<?xml version="1.0" encoding="utf-8"?>
<!-- Generator: Adobe Illustrator 22.0.1, SVG Export Plug-In . SVG Version: 6.00 Build 0)  -->
<svg version="1.1" id="Layer_1" xmlns="http://www.w3.org/2000/svg" xmlns:xlink="http://www.w3.org/1999/xlink" x="0px" y="0px"
	 viewBox="0 0 1455 310" style="enable-background:new 0 0 2000 2000;" xml:space="preserve">
<style type="text/css">
	.st0{fill:#2F2F2F;}
	.st1{fill:#939598;}
	.st2{fill:#1B65C0;}
	.st3{fill:#195CAF;}
	.st4{fill:#103B6F;}
	.st5{fill:#1F4C75;}
	.st6{fill:#0F3A6D;}
	.st7{fill:#3784CA;}
</style>
<g transform="translate(-414,-352) scale(0.55)">
	<g>
		<g>
			<path class="st1" d="M1074,775.9c-3.5-1.5-6.7-3.6-9.5-5.9c-1.4,4.9-2.3,9.8-2.3,14.6c0,10,0.2,19.1,10.9,23
				c66.4,23.9,109.3,78,109.3,137.6h2.2v0C1184.6,871.8,1141.2,805.4,1074,775.9z"/>
			<path class="st1" d="M815.3,945.2L815.3,945.2l2.2,0c0-59.7,42.9-113.7,109.3-137.6c10.7-3.9,10.9-13,10.9-23
				c0-5.3-0.7-10.3-1.8-15c-2.9,2.6-6.3,4.7-10,6.3C858.8,805.4,815.3,871.8,815.3,945.2z"/>
		</g>
		<g>
			<path class="st2" d="M983.5,966.6L843.3,1113c-55.2-34.7-90.4-87.4-90.4-146.4H983.5z"/>
			<path class="st3" d="M1247.2,966.6c0,101.1-103.5,183.8-233.8,189.1V966.6H1247.2z"/>
			<path class="st4" d="M836.2,1124.2c-37.2-23.4-64.8-53.7-80.7-87.7c9,47.8,41.2,89.9,87.8,119.2v-27L836.2,1124.2z"/>
			<path class="st5" d="M986.2,1169c-43-1.8-84.8-11.9-121.4-29.2v28.1c5.4,2.7,10.9,5.2,16.6,7.6c1.6,0.7,3.3,1.3,5,2
				c4.3,1.7,8.7,3.3,13.2,4.9c1.7,0.6,3.3,1.2,5,1.7c6,1.9,12,3.7,18.2,5.3c0.7,0.2,1.5,0.3,2.2,0.5c5.5,1.4,11.2,2.5,16.9,3.6
				c0.8,0.2,1.7,0.4,2.5,0.5c1.1,0.2,2.3,0.3,3.5,0.5c4.5,0.7,9,1.4,13.6,1.9c1.9,0.2,3.9,0.5,5.8,0.7c6.4,0.7,12.9,1.2,19.5,1.5
				V1169L986.2,1169z"/>
			<path class="st6" d="M1013.9,1169l-0.5,0v29.4c6.2-0.3,12.3-0.7,18.4-1.3c0.6-0.1,1.3-0.1,2-0.1c0.4,0,0.8-0.1,1.2-0.2
				c6-0.6,11.9-1.5,17.8-2.4c1.1-0.2,2.2-0.4,3.3-0.6c5.9-1,11.7-2.2,17.4-3.6c0.2-0.1,0.4-0.1,0.7-0.1c1.5-0.4,3-0.8,4.5-1.2
				c1.9-0.5,3.8-1,5.7-1.5c1.8-0.5,3.6-1,5.3-1.6c1.9-0.6,3.8-1.1,5.6-1.7c1.8-0.6,3.5-1.2,5.2-1.8c1.8-0.6,3.7-1.2,5.5-1.9
				c1.7-0.6,3.4-1.3,5.1-1.9c1.8-0.7,3.5-1.4,5.3-2.1c0.4-0.1,0.7-0.3,1.1-0.4c0.5-0.2,0.9-0.4,1.3-0.6c5.7-2.4,11.3-4.9,16.7-7.6
				c0.2-0.1,0.3-0.2,0.5-0.3c5.4-2.7,10.6-5.6,15.7-8.7c0.5-0.3,0.9-0.5,1.4-0.8c4.9-3,9.7-6.1,14.3-9.4c0.7-0.5,1.4-1,2.1-1.4
				c4.4-3.2,8.7-6.5,12.8-10c0.4-0.3,0.8-0.6,1.1-0.9c0.6-0.5,1.2-1.1,1.8-1.6c1.2-1.1,2.5-2.2,3.7-3.3c1.3-1.1,2.5-2.3,3.7-3.4
				c1.2-1.1,2.3-2.2,3.5-3.4c1.2-1.2,2.4-2.4,3.5-3.6c1.1-1.2,2.2-2.3,3.3-3.5c1.1-1.2,2.2-2.4,3.3-3.7c1-1.2,2.1-2.4,3.1-3.6
				c0.5-0.6,1-1.2,1.5-1.8c0.6-0.7,1.1-1.5,1.7-2.2c0.8-1,1.5-2,2.3-3c1.1-1.5,2.2-2.9,3.2-4.4c0.7-1,1.4-2,2.1-3
				c1.1-1.6,2.1-3.2,3.1-4.8c0.6-0.9,1.2-1.8,1.7-2.7c1.2-2,2.4-4.1,3.5-6.2c0.3-0.5,0.6-1,0.9-1.6c1.4-2.6,2.7-5.3,3.9-7.9
				c0.3-0.8,0.7-1.5,1-2.3c0.9-1.9,1.7-3.9,2.5-5.8c0.4-1,0.8-2.1,1.2-3.1c0.6-1.7,1.3-3.4,1.9-5.2c0.4-1.1,0.7-2.3,1.1-3.4
				c0.3-1,0.7-2,0.9-3c0.2-0.6,0.3-1.2,0.5-1.9c0.4-1.4,0.7-2.9,1.1-4.3c0.4-1.5,0.7-3.1,1-4.6c0.2-1,0.4-1.9,0.5-2.9
				C1209.7,1110.4,1120.8,1164.6,1013.9,1169z"/>
			<path class="st7" d="M986.7,997.7v157.9c-44.9-1.8-86.5-12.8-122-30.6L986.7,997.7z"/>
			<g>
				<g>
					<path class="st0" d="M1000,886.6c-16.5,0-29.9-13.4-29.9-29.9V669.9c0-16.5,13.4-29.9,29.9-29.9s29.9,13.4,29.9,29.9v186.8
						C1029.9,873.2,1016.5,886.6,1000,886.6z"/>
				</g>
			</g>
			<path class="st0" d="M1080.4,761.3c73,32,120.2,104.2,120.2,183.8h46.5c0-98.2-58.1-187.1-148.1-226.5
				c-11.8-5.2-25.5,0.2-30.7,12C1063.3,742.4,1068.6,756.2,1080.4,761.3z"/>
			<path class="st0" d="M799.4,945.2c0-79.7,47.2-151.8,120.2-183.8c11.8-5.2,17.1-18.9,12-30.7c-5.2-11.8-18.9-17.1-30.7-12
				c-89.9,39.4-148,128.3-148,226.5H799.4z"/>
			<path class="st1" d="M1000,902.6c-11.4,0-21.9-4.2-29.9-11.2v6.4c0,16.5,13.4,29.9,29.9,29.9s29.9-13.4,29.9-29.9v-6.4
				C1021.9,898.3,1011.4,902.6,1000,902.6z"/>
		</g>
	</g>
</g>
<g transform="translate(-50,-1147)">
	<g>
		<g>
			<path class="st0" d="M509.9,1358.9H495v-82.3h14.9V1358.9z"/>
			<path class="st0" d="M636.9,1291.5h-32.9v67.4h-14.9v-67.4h-32.9v-14.9h80.7V1291.5z"/>
			<path class="st0" d="M731.4,1324.4h-53.8V1311h53.8V1324.4z"/>
			<path class="st0" d="M861,1334.7c0,2.9-0.4,5.6-1.1,7.9c-0.8,2.4-1.7,4.4-3,6.2c-1.2,1.8-2.7,3.3-4.3,4.6
				c-1.6,1.3-3.4,2.3-5.1,3.1c-1.8,0.8-3.5,1.4-5.4,1.8c-1.8,0.4-3.5,0.6-5.1,0.6h-57.5v-14.9H837c2.9,0,5.1-0.8,6.7-2.5
				c1.6-1.7,2.4-3.9,2.4-6.8c0-1.4-0.2-2.6-0.6-3.8c-0.4-1.1-1-2.1-1.8-3c-0.8-0.8-1.7-1.5-2.9-1.9c-1.1-0.5-2.4-0.7-3.8-0.7h-34.3
				c-2.4,0-5-0.4-7.8-1.3c-2.8-0.9-5.4-2.2-7.8-4.2c-2.4-1.9-4.4-4.4-6-7.5c-1.6-3.1-2.4-6.9-2.4-11.4c0-4.5,0.8-8.3,2.4-11.3
				c1.6-3.1,3.6-5.6,6-7.5c2.4-1.9,5-3.3,7.8-4.2c2.8-0.9,5.4-1.3,7.8-1.3h50.8v14.9h-50.8c-2.8,0-5,0.9-6.6,2.6
				c-1.6,1.7-2.4,4-2.4,6.8c0,2.9,0.8,5.1,2.4,6.8c1.6,1.7,3.8,2.5,6.6,2.5H837h0.1c1.6,0,3.3,0.3,5.1,0.7c1.8,0.4,3.6,1,5.4,1.9
				s3.5,1.9,5.1,3.2c1.6,1.3,3,2.8,4.3,4.6c1.2,1.8,2.2,3.9,3,6.2C860.7,1329.1,861,1331.7,861,1334.7z"/>
			<path class="st0" d="M983,1358.9h-53.8c-2.1,0-4.3-0.4-6.8-1.1c-2.4-0.7-4.7-1.9-6.8-3.6c-2.1-1.7-3.8-3.8-5.2-6.5
				c-1.4-2.7-2.1-5.9-2.1-9.8v-53.8c0-1,0.2-2,0.6-2.9c0.4-0.9,0.9-1.7,1.6-2.4c0.7-0.7,1.5-1.2,2.4-1.6c0.9-0.4,1.9-0.6,3-0.6H983
				v14.9h-59.8v46.4c0,1.9,0.5,3.4,1.5,4.5c1,1,2.5,1.6,4.5,1.6H983V1358.9z M976.3,1325.2h-47.1v-15h47.1V1325.2z"/>
			<path class="st0" d="M1047.7,1358.9h-14.9v-82.3h14.9V1358.9z M1118.9,1358.9h-21.2l-33.6-33.6h-10.5v-15h10.5l33.6-33.6h21.2
				l-42.3,41.1L1118.9,1358.9z"/>
			<path class="st0" d="M1237.8,1291.5H1205v67.4h-14.9v-67.4h-32.9v-14.9h80.7V1291.5z"/>
			<path class="st0" d="M1369.3,1325.6c0,5-0.9,9.6-2.6,13.8c-1.7,4.2-4.1,7.8-7.2,10.9c-3.1,3.1-6.7,5.4-10.9,7.2
				c-4.2,1.7-8.8,2.5-13.7,2.5h-20.2c-4.9,0-9.5-0.9-13.7-2.5c-4.2-1.7-7.8-4.1-10.9-7.2c-3.1-3.1-5.5-6.7-7.2-10.9
				c-1.7-4.2-2.6-8.8-2.6-13.8v-15.7c0-5,0.9-9.6,2.6-13.8c1.7-4.2,4.1-7.9,7.2-10.9c3.1-3,6.7-5.4,10.9-7.1
				c4.2-1.7,8.8-2.6,13.7-2.6h20.2c4.9,0,9.5,0.9,13.7,2.6c4.2,1.7,7.8,4.1,10.9,7.1c3.1,3,5.4,6.7,7.2,10.9
				c1.7,4.2,2.6,8.8,2.6,13.8V1325.6z M1354.3,1309.9c0-2.9-0.5-5.6-1.4-8c-0.9-2.4-2.3-4.4-4-6.1c-1.7-1.7-3.8-3-6.1-4
				c-2.4-0.9-5-1.4-7.9-1.4h-20.2c-2.9,0-5.6,0.5-7.9,1.4c-2.4,0.9-4.4,2.3-6.2,4c-1.7,1.7-3,3.8-4,6.1c-0.9,2.4-1.4,5.1-1.4,8v15.7
				c0,2.9,0.5,5.6,1.4,8c0.9,2.4,2.3,4.4,4,6.1c1.7,1.7,3.8,3,6.2,4c2.4,0.9,5,1.4,7.9,1.4h20.1c2.9,0,5.6-0.5,7.9-1.4
				c2.4-0.9,4.4-2.3,6.2-4c1.7-1.7,3.1-3.7,4-6.1c0.9-2.4,1.4-5.1,1.4-8V1309.9z"/>
			<path class="st0" d="M1501.5,1304.2c0,3.4-0.4,6.4-1.3,9.1c-0.8,2.7-2,5-3.4,7.1c-1.4,2-3.1,3.8-5,5.3s-3.8,2.6-5.9,3.6
				c-2,0.9-4.1,1.6-6.2,2c-2.1,0.4-4,0.6-5.9,0.6l31.2,26.9h-23.1l-31.1-26.9h-10.7V1317h33.7c1.9-0.2,3.6-0.5,5.1-1.2
				c1.5-0.6,2.9-1.5,4-2.5c1.1-1.1,2-2.4,2.6-3.9c0.6-1.5,0.9-3.2,0.9-5.2v-9.4c0-0.8-0.1-1.5-0.3-1.9c-0.2-0.4-0.5-0.8-0.8-1
				c-0.3-0.2-0.7-0.3-1-0.4c-0.4,0-0.7-0.1-1-0.1h-49.2v67.4h-14.9v-74.8c0-1,0.2-2,0.6-2.9c0.4-0.9,0.9-1.7,1.6-2.4
				c0.7-0.7,1.5-1.2,2.4-1.6c0.9-0.4,1.9-0.6,3-0.6h56.6c3.3,0,6.1,0.6,8.4,1.8c2.3,1.2,4.2,2.7,5.6,4.5c1.4,1.8,2.5,3.8,3.1,5.9
				c0.6,2.1,1,4.1,1,5.9V1304.2z"/>
		</g>
	</g>
</g>
</svg>
